<svg width="38" height="37" fill="none" xmlns="http://www.w3.org/2000/svg"><path fill-rule="evenodd" clip-rule="evenodd" d="M11.4.65c1.94-.08 2.55-.1 7.49-.1 4.93 0 5.55.02 7.48.1 1.94.1 3.26.4 4.41.85A8.9 8.9 0 0 1 34 3.6c.92.9 1.64 2 2.1 3.2.44 1.16.75 2.49.84 4.42.09 1.93.1 2.55.1 7.48 0 4.94-.02 5.55-.1 7.5-.1 1.92-.4 3.24-.85 4.4a8.9 8.9 0 0 1-2.1 3.22c-.9.92-2 1.63-3.2 2.09-1.16.45-2.48.76-4.42.84-1.93.1-2.55.11-7.48.11-4.94 0-5.55-.02-7.49-.1-1.93-.1-3.25-.4-4.4-.85a8.9 8.9 0 0 1-3.23-2.1 8.9 8.9 0 0 1-2.09-3.21 13.35 13.35 0 0 1-.84-4.4c-.1-1.95-.11-2.56-.11-7.5 0-4.93.02-5.55.1-7.48.1-1.93.4-3.26.85-4.41a8.9 8.9 0 0 1 2.1-3.22c.9-.92 2-1.64 3.21-2.1C8.15 1.06 9.47.75 11.4.66Zm14.82 3.27c-1.91-.08-2.49-.1-7.33-.1-4.85 0-5.43.02-7.34.1-1.77.08-2.73.38-3.37.63-.85.33-1.46.72-2.1 1.36a5.63 5.63 0 0 0-1.35 2.08c-.25.64-.54 1.6-.63 3.38-.08 1.91-.1 2.49-.1 7.33 0 4.85.02 5.43.1 7.34.09 1.77.38 2.73.63 3.37.3.8.76 1.5 1.36 2.1.58.6 1.3 1.06 2.09 1.35.64.25 1.6.55 3.37.63 1.91.08 2.49.1 7.34.1s5.42-.02 7.33-.1c1.78-.08 2.74-.38 3.38-.63a5.62 5.62 0 0 0 2.08-1.36c.6-.58 1.07-1.3 1.36-2.09.25-.64.55-1.6.63-3.37.08-1.91.1-2.49.1-7.34 0-4.84-.02-5.42-.1-7.33a10.02 10.02 0 0 0-.63-3.38 5.62 5.62 0 0 0-1.36-2.08 5.63 5.63 0 0 0-2.08-1.36c-.64-.25-1.6-.55-3.38-.63ZM16.57 24.3a6.06 6.06 0 1 0 4.63-11.19 6.06 6.06 0 0 0-4.63 11.2Zm-4.28-12.2a9.33 9.33 0 1 1 13.2 13.2 9.33 9.33 0 0 1-13.2-13.2Zm18-1.34a2.2 2.2 0 1 0-3.12-3.12 2.2 2.2 0 0 0 3.12 3.12Z" fill="#000"/></svg>