<svg width="80" height="80" fill="none" xmlns="http://www.w3.org/2000/svg"><path d="M54.292 51.08a15.351 15.351 0 0 1 7.262-1.811h.009c.267 0 .392-.32.196-.497a33.179 33.179 0 0 0-9.252-5.844c-.035-.018-.07-.027-.106-.044 5.54-4.006 9.144-10.515 9.144-17.86C61.545 12.858 51.66 3 39.465 3c-12.196 0-22.072 9.858-22.072 22.024 0 7.345 3.604 13.854 9.153 17.86-.035.017-.071.026-.107.044a33.25 33.25 0 0 0-10.643 7.158 33.155 33.155 0 0 0-7.173 10.612A33.05 33.05 0 0 0 6 72.963a.707.707 0 0 0 .437.672.717.717 0 0 0 .277.056h5.344c.383 0 .705-.31.714-.693.178-6.856 2.935-13.277 7.815-18.143 5.04-5.035 11.75-7.806 18.886-7.806 5.059 0 9.912 1.394 14.096 4.005a.725.725 0 0 0 .723.026ZM39.473 40.3c-4.086 0-7.93-1.59-10.83-4.477a15.198 15.198 0 0 1-3.328-4.953 15.142 15.142 0 0 1-1.16-5.846 15.17 15.17 0 0 1 4.488-10.799 15.224 15.224 0 0 1 10.83-4.476 15.24 15.24 0 0 1 10.83 4.476 15.198 15.198 0 0 1 3.329 4.954 15.142 15.142 0 0 1 1.16 5.845 15.17 15.17 0 0 1-4.488 10.8 15.255 15.255 0 0 1-10.83 4.475Zm32.813 21.136h-7.494v-7.46c0-.391-.32-.71-.713-.71h-4.996a.714.714 0 0 0-.714.71v7.46h-7.494a.714.714 0 0 0-.714.71v4.973c0 .391.321.71.714.71h7.494v7.46c0 .391.321.711.714.711h4.996c.392 0 .713-.32.713-.71v-7.46h7.494c.393 0 .714-.32.714-.71v-4.974c0-.39-.321-.71-.714-.71Z" fill="#000"/></svg>